<svg width="36" height="36" viewBox="0 0 36 36" fill="none" xmlns="http://www.w3.org/2000/svg">
	<g clip-path="url(#clip0_102_2)">
		<g filter="url(#filter0_d_102_2)">
			<path d="M17.6154 34.2308C26.7918 34.2308 34.2308 26.7918 34.2308 17.6154C34.2308 8.43896 26.7918 1 17.6154 1C8.43896 1 1 8.43896 1 17.6154C1 26.7918 8.43896 34.2308 17.6154 34.2308Z" fill="url(#paint0_linear_102_2)"/>
		</g>
		<path fill-rule="evenodd" clip-rule="evenodd" d="M15.9419 15.2844V12.8937L29.3896 18.8705V22.2175L15.9419 28.3138V25.5645L26.5208 20.6038L15.9419 15.2844Z" fill="white"/>
		<path fill-rule="evenodd" clip-rule="evenodd" d="M20.1855 9.42723V7.03653L6.73784 13.0133V16.3603L20.1855 22.4566V19.7073L9.60669 14.7465L20.1855 9.42723Z" fill="white"/>
	</g>
	<defs>
		<filter id="filter0_d_102_2" x="0" y="1" width="35.231" height="35.2308" filterUnits="userSpaceOnUse" color-interpolation-filters="sRGB">
			<feFlood flood-opacity="0" result="BackgroundImageFix"/>
			<feColorMatrix in="SourceAlpha" type="matrix" values="0 0 0 0 0 0 0 0 0 0 0 0 0 0 0 0 0 0 127 0" result="hardAlpha"/>
			<feOffset dy="1"/>
			<feGaussianBlur stdDeviation="0.5"/>
			<feComposite in2="hardAlpha" operator="out"/>
			<feColorMatrix type="matrix" values="0 0 0 0 0 0 0 0 0 0 0 0 0 0 0 0 0 0 0.25 0"/>
			<feBlend mode="normal" in2="BackgroundImageFix" result="effect1_dropShadow_102_2"/>
			<feBlend mode="normal" in="SourceGraphic" in2="effect1_dropShadow_102_2" result="shape"/>
		</filter>
		<linearGradient id="paint0_linear_102_2" x1="12.0769" y1="2.38462" x2="20.8462" y2="34.2308" gradientUnits="userSpaceOnUse">
			<stop stop-color="#F8CFA2"/>
			<stop offset="1" stop-color="#D1740E"/>
		</linearGradient>
		<clipPath id="clip0_102_2">
			<rect width="36" height="36" fill="white"/>
		</clipPath>
	</defs>
</svg>
